<svg version="1.1" xmlns="http://www.w3.org/2000/svg" xmlns:xlink="http://www.w3.org/1999/xlink" width="1464" height="1021"><defs><clipPath id="nrfDCBTALMXE"><path fill="none" stroke="none" d=" M 0 0 L 1464 0 L 1464 1021 L 0 1021 L 0 0 Z"/></clipPath></defs><g transform="scale(1,1)" clip-path="url(#nrfDCBTALMXE)"><g><rect fill="rgb(255,255,255)" stroke="none" x="0" y="0" width="1464" height="1021" fill-opacity="1"/><path fill="none" stroke="rgb(212,238,205)" paint-order="fill stroke markers" d=" M 783.7462499433221 465.6824885000008 C 783.7462499433221 618.8830498471813 659.5526565648522 743.0766432256518 506.3520952176723 743.0766432256518 C 353.15153387049236 743.0766432256518 228.95794049202243 618.8830498471813 228.95794049202243 465.6824885000008 C 228.95794049202243 312.4819271528202 353.15153387049236 188.28833377434978 506.3520952176723 188.28833377434978 C 659.5526565648522 188.28833377434978 783.7462499433221 312.4819271528202 783.7462499433221 465.6824885000008 Z" stroke-opacity="0.6980392156862745" stroke-linejoin="round" stroke-miterlimit="10" stroke-width="2.5" stroke-dasharray="2.5,3"/><path fill="none" stroke="rgb(56,154,198)" paint-order="fill stroke markers" d=" M 426.7727096977051 731.4166385000013 L 813.0475240000007 203.1693585000002 M 426.7727096977051 199.94833850000018 L 426.7727096977051 731.4166385000013 M 426.7727096977051 199.94833850000018 L 259.03208400000017 591.302268500001 M 813.0475240000007 203.1693585000002 L 426.7727096977051 199.94833850000018 M 259.03208400000017 591.302268500001 L 426.7727096977051 731.4166385000013" stroke-opacity="0.6980392156862745" stroke-linecap="round" stroke-linejoin="round" stroke-miterlimit="10" stroke-width="2.5"/><path fill="rgb(122,203,196)" stroke="none" paint-order="stroke fill markers" d=" M 264.03208400000017 591.302268500001 C 264.03208400000017 594.063692249155 261.7935077491541 596.302268500001 259.03208400000017 596.302268500001 C 256.2706602508462 596.302268500001 254.03208400000017 594.063692249155 254.03208400000017 591.302268500001 C 254.03208400000017 588.540844750847 256.2706602508462 586.302268500001 259.03208400000017 586.302268500001 C 261.7935077491541 586.302268500001 264.03208400000017 588.540844750847 264.03208400000017 591.302268500001 Z" fill-opacity="1"/><path fill="none" stroke="rgb(0,0,0)" paint-order="fill stroke markers" d=" M 264.03208400000017 591.302268500001 C 264.03208400000017 594.063692249155 261.7935077491541 596.302268500001 259.03208400000017 596.302268500001 C 256.2706602508462 596.302268500001 254.03208400000017 594.063692249155 254.03208400000017 591.302268500001 C 254.03208400000017 588.540844750847 256.2706602508462 586.302268500001 259.03208400000017 586.302268500001 C 261.7935077491541 586.302268500001 264.03208400000017 588.540844750847 264.03208400000017 591.302268500001 Z" stroke-opacity="1" stroke-linecap="round" stroke-linejoin="round" stroke-miterlimit="10"/><text fill="rgb(122,203,196)" stroke="none" font-family="geogebra-sans-serif, sans-serif" font-size="16px" font-style="normal" font-weight="normal" text-decoration="normal" x="235" y="607" text-anchor="start" dominant-baseline="alphabetic" fill-opacity="1">C</text><text fill="none" stroke="rgb(255,255,255)" font-family="geogebra-sans-serif, sans-serif" font-size="16px" font-style="normal" font-weight="normal" text-decoration="normal" x="235" y="607" text-anchor="start" dominant-baseline="alphabetic" stroke-opacity="1" stroke-linejoin="bevel" stroke-miterlimit="10" stroke-width="3">C</text><text fill="rgb(122,203,196)" stroke="none" font-family="geogebra-sans-serif, sans-serif" font-size="16px" font-style="normal" font-weight="normal" text-decoration="normal" x="235" y="607" text-anchor="start" dominant-baseline="alphabetic" fill-opacity="1">C</text><path fill="rgb(122,203,196)" stroke="none" paint-order="stroke fill markers" d=" M 431.7727096977051 731.4166385000013 C 431.7727096977051 734.1780622491553 429.5341334468591 736.4166385000013 426.7727096977051 736.4166385000013 C 424.0112859485512 736.4166385000013 421.7727096977051 734.1780622491553 421.7727096977051 731.4166385000013 C 421.7727096977051 728.6552147508473 424.0112859485512 726.4166385000013 426.7727096977051 726.4166385000013 C 429.5341334468591 726.4166385000013 431.7727096977051 728.6552147508473 431.7727096977051 731.4166385000013 Z" fill-opacity="1"/><path fill="none" stroke="rgb(0,0,0)" paint-order="fill stroke markers" d=" M 431.7727096977051 731.4166385000013 C 431.7727096977051 734.1780622491553 429.5341334468591 736.4166385000013 426.7727096977051 736.4166385000013 C 424.0112859485512 736.4166385000013 421.7727096977051 734.1780622491553 421.7727096977051 731.4166385000013 C 421.7727096977051 728.6552147508473 424.0112859485512 726.4166385000013 426.7727096977051 726.4166385000013 C 429.5341334468591 726.4166385000013 431.7727096977051 728.6552147508473 431.7727096977051 731.4166385000013 Z" stroke-opacity="1" stroke-linecap="round" stroke-linejoin="round" stroke-miterlimit="10"/><text fill="rgb(122,203,196)" stroke="none" font-family="geogebra-sans-serif, sans-serif" font-size="16px" font-style="normal" font-weight="normal" text-decoration="normal" x="421" y="755" text-anchor="start" dominant-baseline="alphabetic" fill-opacity="1">A</text><text fill="none" stroke="rgb(255,255,255)" font-family="geogebra-sans-serif, sans-serif" font-size="16px" font-style="normal" font-weight="normal" text-decoration="normal" x="421" y="755" text-anchor="start" dominant-baseline="alphabetic" stroke-opacity="1" stroke-linejoin="bevel" stroke-miterlimit="10" stroke-width="3">A</text><text fill="rgb(122,203,196)" stroke="none" font-family="geogebra-sans-serif, sans-serif" font-size="16px" font-style="normal" font-weight="normal" text-decoration="normal" x="421" y="755" text-anchor="start" dominant-baseline="alphabetic" fill-opacity="1">A</text><path fill="rgb(122,203,196)" stroke="none" paint-order="stroke fill markers" d=" M 431.7727096977051 199.94833850000018 C 431.7727096977051 202.70976224915415 429.5341334468591 204.94833850000018 426.7727096977051 204.94833850000018 C 424.0112859485512 204.94833850000018 421.7727096977051 202.70976224915415 421.7727096977051 199.94833850000018 C 421.7727096977051 197.1869147508462 424.0112859485512 194.94833850000018 426.7727096977051 194.94833850000018 C 429.5341334468591 194.94833850000018 431.7727096977051 197.1869147508462 431.7727096977051 199.94833850000018 Z" fill-opacity="1"/><path fill="none" stroke="rgb(0,0,0)" paint-order="fill stroke markers" d=" M 431.7727096977051 199.94833850000018 C 431.7727096977051 202.70976224915415 429.5341334468591 204.94833850000018 426.7727096977051 204.94833850000018 C 424.0112859485512 204.94833850000018 421.7727096977051 202.70976224915415 421.7727096977051 199.94833850000018 C 421.7727096977051 197.1869147508462 424.0112859485512 194.94833850000018 426.7727096977051 194.94833850000018 C 429.5341334468591 194.94833850000018 431.7727096977051 197.1869147508462 431.7727096977051 199.94833850000018 Z" stroke-opacity="1" stroke-linecap="round" stroke-linejoin="round" stroke-miterlimit="10"/><text fill="rgb(122,203,196)" stroke="none" font-family="geogebra-sans-serif, sans-serif" font-size="16px" font-style="normal" font-weight="normal" text-decoration="normal" x="431" y="190" text-anchor="start" dominant-baseline="alphabetic" fill-opacity="1">B</text><text fill="none" stroke="rgb(255,255,255)" font-family="geogebra-sans-serif, sans-serif" font-size="16px" font-style="normal" font-weight="normal" text-decoration="normal" x="431" y="190" text-anchor="start" dominant-baseline="alphabetic" stroke-opacity="1" stroke-linejoin="bevel" stroke-miterlimit="10" stroke-width="3">B</text><text fill="rgb(122,203,196)" stroke="none" font-family="geogebra-sans-serif, sans-serif" font-size="16px" font-style="normal" font-weight="normal" text-decoration="normal" x="431" y="190" text-anchor="start" dominant-baseline="alphabetic" fill-opacity="1">B</text><path fill="rgb(122,203,196)" stroke="none" paint-order="stroke fill markers" d=" M 818.0475240000007 203.1693585000002 C 818.0475240000007 205.93078224915416 815.8089477491548 208.1693585000002 813.0475240000007 208.1693585000002 C 810.2861002508467 208.1693585000002 808.0475240000007 205.93078224915416 808.0475240000007 203.1693585000002 C 808.0475240000007 200.4079347508462 810.2861002508467 198.1693585000002 813.0475240000007 198.1693585000002 C 815.8089477491548 198.1693585000002 818.0475240000007 200.4079347508462 818.0475240000007 203.1693585000002 Z" fill-opacity="1"/><path fill="none" stroke="rgb(0,0,0)" paint-order="fill stroke markers" d=" M 818.0475240000007 203.1693585000002 C 818.0475240000007 205.93078224915416 815.8089477491548 208.1693585000002 813.0475240000007 208.1693585000002 C 810.2861002508467 208.1693585000002 808.0475240000007 205.93078224915416 808.0475240000007 203.1693585000002 C 808.0475240000007 200.4079347508462 810.2861002508467 198.1693585000002 813.0475240000007 198.1693585000002 C 815.8089477491548 198.1693585000002 818.0475240000007 200.4079347508462 818.0475240000007 203.1693585000002 Z" stroke-opacity="1" stroke-linecap="round" stroke-linejoin="round" stroke-miterlimit="10"/><text fill="rgb(122,203,196)" stroke="none" font-family="geogebra-sans-serif, sans-serif" font-size="16px" font-style="normal" font-weight="normal" text-decoration="normal" x="817" y="193" text-anchor="start" dominant-baseline="alphabetic" fill-opacity="1">D</text><text fill="none" stroke="rgb(255,255,255)" font-family="geogebra-sans-serif, sans-serif" font-size="16px" font-style="normal" font-weight="normal" text-decoration="normal" x="817" y="193" text-anchor="start" dominant-baseline="alphabetic" stroke-opacity="1" stroke-linejoin="bevel" stroke-miterlimit="10" stroke-width="3">D</text><text fill="rgb(122,203,196)" stroke="none" font-family="geogebra-sans-serif, sans-serif" font-size="16px" font-style="normal" font-weight="normal" text-decoration="normal" x="817" y="193" text-anchor="start" dominant-baseline="alphabetic" fill-opacity="1">D</text></g></g></svg>